<svg width="503" height="114" viewBox="0 0 503 114" fill="none" xmlns="http://www.w3.org/2000/svg">
<g clip-path="url(#clip0)">
<path d="M91.68 49.23H58.89V70.32H77.5V87.17C70.8741 90.6485 63.4826 92.4121 56 92.3C36.52 92.3 23.77 78.23 23.77 58.89C23.77 39.55 36.48 25.49 56 25.49C67.57 25.49 75.05 28.86 81.2 35.31L97.27 17.73C86.87 8.06002 72.37 4.40002 56 4.40002C23.58 4.40002 0 25.64 0 58.89C0 92.14 23.58 113.39 56 113.39C69.77 113.39 83.17 111 95.57 105.39C87.76 97.88 83.16 87.39 83.16 75.19C83.0072 65.8259 86.008 56.6825 91.68 49.23ZM150.34 58.89C150.329 54.1863 150.808 49.4943 151.77 44.89C144.638 40.1561 136.24 37.6914 127.68 37.82C105.68 37.82 88.12 52.47 88.12 75.17C88.12 97.87 105.7 112.53 127.68 112.53C142.19 112.53 154.79 106.14 161.68 95.26C154.43 85.46 150.34 73 150.34 58.89ZM127.68 93.17C116.68 93.17 110.1 85.85 110.1 75.17C110.1 64.49 116.69 57.17 127.68 57.17C138.67 57.17 145.26 64.49 145.26 75.17C145.26 85.85 138.66 93.17 127.68 93.17ZM134.34 83.94C132.465 85.8147 129.922 86.8679 127.27 86.8679C124.618 86.8679 122.075 85.8147 120.2 83.94C118.325 82.0648 117.272 79.5217 117.272 76.87C117.272 74.2184 118.325 71.6753 120.2 69.8L127.27 62.72L134.34 69.8C136.215 71.6753 137.268 74.2184 137.268 76.87C137.268 79.5217 136.215 82.0648 134.34 83.94Z" fill="url(#paint0_linear)"/>
<path d="M226 85.58C221.21 90.0354 214.87 92.4464 208.33 92.3C191.78 92.3 179.03 78.23 179.03 58.89C179.03 39.55 191.78 25.49 209.03 25.49C217.53 25.49 224.12 28.57 228.66 33.99L246.24 19.63C237.52 8.35 222.87 4.4 211.3 4.4C178.92 4.4 155.3 25.64 155.3 58.89C155.3 92.14 178.88 113.39 211.3 113.39C220.672 113.477 229.872 110.874 237.81 105.89C231.929 100.455 227.815 93.3795 226 85.58ZM269.39 37.8C247.39 37.8 229.84 52.45 229.84 75.15C229.84 97.85 247.42 112.51 269.39 112.51C282.44 112.51 293.94 107.35 301.13 98.4V51.91C293.94 43 282.44 37.8 269.39 37.8ZM269.39 93.17C258.39 93.17 251.81 85.85 251.81 75.17C251.81 64.49 258.4 57.17 269.39 57.17C280.38 57.17 287 64.46 287 75.15C287 85.84 280.38 93.17 269.39 93.17ZM328.1 0H306.1V110.75H328.1V100.82C322.549 93.4238 319.606 84.3966 319.73 75.15C319.607 65.9036 322.551 56.877 328.1 49.48V0ZM396.19 62.62C396.19 62.46 396.11 62.3 396.06 62.14H382.13V42.49C376.734 39.2917 370.551 37.6671 364.28 37.8C342.28 37.8 324.73 52.45 324.73 75.15C324.73 97.85 342.31 112.51 364.28 112.51C375.71 112.51 387.28 107.39 394.28 98.45L378.93 87.17C375.27 92.17 370.43 95.81 363.26 95.81C354.76 95.81 348.46 90.39 346.7 82.04H396.19V62.62ZM346.7 67.1C347.29 60.21 352.56 53.62 362.23 53.62C364.012 53.5775 365.784 53.8972 367.438 54.5596C369.093 55.222 370.596 56.2134 371.856 57.4737C373.117 58.734 374.108 60.237 374.77 61.8916C375.433 63.5463 375.752 65.3182 375.71 67.1H346.7ZM442.51 40.1V39.56H423.17V18.46H401.17V39.56H387.13V57.14H401.19V91C401.19 106.53 412.47 112.53 427.12 112.53C431.183 112.596 435.24 112.19 439.21 111.32C436.403 109.22 434.067 106.554 432.355 103.495C430.643 100.436 429.592 97.0511 429.27 93.56C423.77 92.03 423.17 87.16 423.17 80.89V57.14H439.4L431.54 49.08L435.23 45.59C437.451 43.5026 439.892 41.6618 442.51 40.1ZM482.32 101.82H482C477.16 109.44 468.37 112.51 459.44 112.51C446.11 112.51 434.09 104.9 434.09 90.51C434.09 65.9 463.98 65.46 482.29 65.46C482.29 57.69 475.85 52.71 468.23 52.71C461.05 52.71 455.04 55.93 450.35 61.21L438.63 49.21C446.72 41.61 458.44 37.8 470 37.8C495.63 37.8 502.52 50.8 502.52 74.57V110.75H482.32V101.82ZM476.9 79.55C470.16 79.55 455.22 80.14 455.22 89.81C455.22 95.08 460.79 97.57 465.62 97.57C474.26 97.57 482.32 93.03 482.32 84.24V79.55H476.9ZM274.15 79.55H255.67L255.47 80.29C255.31 80.9099 255.293 81.5582 255.422 82.1855C255.55 82.8128 255.819 83.4026 256.21 83.91C256.599 84.4211 257.101 84.8345 257.677 85.1174C258.254 85.4004 258.888 85.5451 259.53 85.54H277.63L274.15 79.55ZM272.77 62.09L263.54 78.09H256.6L265.6 62.43C265.922 61.8742 266.368 61.3999 266.902 61.0438C267.437 60.6876 268.046 60.4592 268.683 60.3761C269.32 60.2929 269.968 60.3574 270.576 60.5644C271.184 60.7714 271.736 61.1155 272.19 61.57L272.77 62.09ZM282.89 82.94C282.647 83.533 282.273 84.0629 281.794 84.4892C281.316 84.9155 280.747 85.227 280.13 85.4L279.39 85.6L270.14 69.6L273.61 63.6L282.61 79.24C282.938 79.7917 283.134 80.412 283.183 81.0522C283.231 81.6923 283.131 82.335 282.89 82.93V82.94Z" fill="url(#paint1_linear)"/>
</g>
<defs>
<linearGradient id="paint0_linear" x1="74.21" y1="-25.74" x2="82.18" y2="99.28" gradientUnits="userSpaceOnUse">
<stop stop-color="#FCD462"/>
<stop offset="1" stop-color="#FC6A62"/>
</linearGradient>
<linearGradient id="paint1_linear" x1="295.73" y1="-53.98" x2="384.47" y2="266.17" gradientUnits="userSpaceOnUse">
<stop stop-color="#3DA4E0"/>
<stop offset="1" stop-color="#3D59E0"/>
</linearGradient>
<clipPath id="clip0">
<rect width="502.54" height="113.39" fill="white"/>
</clipPath>
</defs>
</svg>
