<svg xmlns="http://www.w3.org/2000/svg" viewBox="0 0 502.54 113.39"><title>Ativo 1</title><g id="Camada_2" data-name="Camada 2"><g id="Camada_1-2" data-name="Camada 1"><path d="M91.68,49.23H58.89V70.32H77.5V87.17A44.81,44.81,0,0,1,56,92.3c-19.48,0-32.23-14.07-32.23-33.41S36.48,25.49,56,25.49c11.57,0,19.05,3.37,25.2,9.82L97.27,17.73C86.87,8.06,72.37,4.4,56,4.4,23.58,4.4,0,25.64,0,58.89s23.58,54.5,56,54.5c13.77,0,27.17-2.39,39.57-8-7.81-7.51-12.41-18-12.41-30.2a41.74,41.74,0,0,1,8.56-25.92"/><path d="M150.34,58.89a67.66,67.66,0,0,1,1.43-14,42.41,42.41,0,0,0-24.09-7.07c-22,0-39.56,14.65-39.56,37.35s17.58,37.36,39.56,37.36c14.51,0,27.11-6.39,34-17.27-7.23-9.78-11.32-22.21-11.32-36.35M127.68,93.17c-11,0-17.58-7.32-17.58-18s6.59-18,17.58-18,17.58,7.32,17.58,18-6.6,18-17.58,18"/><path d="M226,85.58a25.12,25.12,0,0,1-17.67,6.72c-16.55,0-29.3-14.07-29.3-33.41s12.75-33.4,30-33.4c8.5,0,15.09,3.08,19.63,8.5l17.58-14.36C237.52,8.35,222.87,4.4,211.3,4.4c-32.38,0-56,21.24-56,54.49s23.58,54.5,56,54.5a49,49,0,0,0,26.51-7.5A40,40,0,0,1,226,85.58"/><path d="M269.39,37.8c-22,0-39.55,14.65-39.55,37.35s17.58,37.36,39.55,37.36c13.05,0,24.55-5.16,31.74-14.11V51.91C293.94,43,282.44,37.8,269.39,37.8m0,55.37c-11,0-17.58-7.32-17.58-18s6.59-18,17.58-18S287,64.46,287,75.15s-6.59,18-17.58,18"/><path d="M328.1,0h-22V110.75h22v-9.93a41.83,41.83,0,0,1-8.37-25.67,41.85,41.85,0,0,1,8.37-25.67Z"/><path d="M396.19,62.62c0-.16-.08-.32-.13-.48H382.13V42.49a33.61,33.61,0,0,0-17.85-4.69c-22,0-39.55,14.65-39.55,37.35s17.58,37.36,39.55,37.36c11.43,0,23-5.12,30-14.06L378.93,87.17c-3.66,5-8.5,8.64-15.67,8.64-8.5,0-14.8-5.42-16.56-13.77h49.49ZM346.7,67.1c.59-6.89,5.86-13.48,15.53-13.48A13.17,13.17,0,0,1,375.71,67.1Z"/><path d="M442.51,40.1v-.54H423.17V18.46h-22v21.1H387.13V57.14h14.06V91c0,15.53,11.28,21.53,25.93,21.53a52.46,52.46,0,0,0,12.09-1.21,25.05,25.05,0,0,1-9.94-17.76c-5.5-1.53-6.1-6.4-6.1-12.67V57.14H439.4l-7.86-8.06,3.69-3.49a42.22,42.22,0,0,1,7.28-5.49"/><path d="M482.32,101.82H482c-4.84,7.62-13.63,10.69-22.56,10.69-13.33,0-25.35-7.61-25.35-22,0-24.61,29.89-25.05,48.2-25.05,0-7.77-6.44-12.75-14.06-12.75-7.18,0-13.19,3.22-17.88,8.5l-11.71-12C446.72,41.61,458.44,37.8,470,37.8c25.63,0,32.52,13,32.52,36.77v36.18H482.32ZM476.9,79.55c-6.74,0-21.68.59-21.68,10.26,0,5.27,5.57,7.76,10.4,7.76,8.64,0,16.7-4.54,16.7-13.33V79.55Z"/><path d="M134.34,83.94h0A10,10,0,0,1,120.2,69.8l7.07-7.08,7.07,7.08a10,10,0,0,1,0,14.14"/><path d="M274.15,79.6H255.67l-.2.74a4.21,4.21,0,0,0,.74,3.62,4.13,4.13,0,0,0,3.32,1.63h18.1Z"/><path d="M272.77,62.14l-9.23,16H256.6l9-15.66a4.19,4.19,0,0,1,6.59-.86Z"/><path d="M282.89,83a4.21,4.21,0,0,1-2.76,2.46l-.74.2-9.25-16,3.47-6,9,15.64a4.16,4.16,0,0,1,.25,3.67"/></g></g></svg>