<svg width="228" height="52" viewBox="0 0 228 52" fill="none" xmlns="http://www.w3.org/2000/svg">
<path d="M41.5516 22.3122H26.6904V31.8707H35.1249V39.5076C32.1219 41.0841 28.7719 41.8834 25.3806 41.8326C16.5518 41.8326 10.7732 35.4557 10.7732 26.6904C10.7732 17.925 16.5336 11.5527 25.3806 11.5527C30.6244 11.5527 34.0145 13.08 36.8018 16.0033L44.0852 8.03566C39.3716 3.65297 32.7999 1.99417 25.3806 1.99417C10.687 1.99417 0 11.6207 0 26.6904C0 41.7601 10.687 51.3911 25.3806 51.3911C31.6215 51.3911 37.6947 50.3079 43.3147 47.7653C39.775 44.3616 37.6902 39.6073 37.6902 34.0779C37.6209 29.8339 38.981 25.6899 41.5516 22.3122Z" fill="#F2F2F2"/>
<path d="M68.1378 26.6904C68.1327 24.5586 68.3499 22.432 68.7859 20.3453C65.5533 18.1997 61.7471 17.0827 57.8677 17.141C47.8968 17.141 39.9382 23.7807 39.9382 34.0689C39.9382 44.3571 47.9059 51.0014 57.8677 51.0014C64.444 51.0014 70.1547 48.1053 73.2774 43.1742C69.9915 38.7326 68.1378 33.0854 68.1378 26.6904ZM57.8677 42.227C52.8823 42.227 49.9 38.9093 49.9 34.0689C49.9 29.2285 52.8868 25.9109 57.8677 25.9109C62.8487 25.9109 65.8354 29.2285 65.8354 34.0689C65.8354 38.9093 62.8441 42.227 57.8677 42.227Z" fill="#F2F2F2"/>
<path d="M102.429 38.787C100.258 40.8063 97.3846 41.899 94.4203 41.8326C86.9194 41.8326 81.1408 35.4557 81.1408 26.6904C81.1408 17.925 86.9194 11.5527 94.7376 11.5527C98.59 11.5527 101.577 12.9486 103.634 15.4051L111.602 8.89678C107.65 3.78441 101.01 1.99417 95.7664 1.99417C81.091 1.99417 70.3858 11.6207 70.3858 26.6904C70.3858 41.7601 81.0728 51.3911 95.7664 51.3911C100.014 51.4305 104.184 50.2508 107.781 47.9919C105.116 45.5286 103.251 42.3219 102.429 38.787Z" fill="#F2F2F2"/>
<path d="M122.094 17.1319C112.123 17.1319 104.169 23.7716 104.169 34.0598C104.169 44.348 112.137 50.9923 122.094 50.9923C128.009 50.9923 133.221 48.6537 136.48 44.5973V23.5269C133.221 19.4887 128.009 17.1319 122.094 17.1319ZM122.094 42.2269C117.109 42.2269 114.127 38.9093 114.127 34.0689C114.127 29.2285 117.113 25.9109 122.094 25.9109C127.075 25.9109 130.076 29.2149 130.076 34.0598C130.076 38.9048 127.075 42.2269 122.094 42.2269Z" fill="#F2F2F2"/>
<path d="M148.703 0H138.732V50.1946H148.703V45.6941C146.187 42.342 144.853 38.2506 144.91 34.0598C144.854 29.8691 146.188 25.778 148.703 22.4256V0Z" fill="#F2F2F2"/>
<path d="M179.563 28.3809C179.563 28.3084 179.527 28.2359 179.504 28.1634H173.191V19.2575C170.745 17.808 167.943 17.0717 165.101 17.1319C155.13 17.1319 147.176 23.7716 147.176 34.0598C147.176 44.348 155.143 50.9923 165.101 50.9923C170.281 50.9923 175.525 48.6718 178.697 44.62L171.74 39.5076C170.082 41.7737 167.888 43.4235 164.638 43.4235C160.786 43.4235 157.931 40.967 157.133 37.1826H179.563V28.3809ZM157.133 30.4114C157.4 27.2887 159.789 24.3019 164.172 24.3019C164.979 24.2827 165.782 24.4275 166.532 24.7278C167.282 25.028 167.963 25.4773 168.534 26.0485C169.106 26.6197 169.555 27.3009 169.855 28.0508C170.155 28.8008 170.3 29.6038 170.281 30.4114H157.133Z" fill="#F2F2F2"/>
<path d="M200.556 18.1743V17.9296H191.791V8.36652H181.82V17.9296H175.457V25.8972H181.829V41.2434C181.829 48.282 186.942 51.0014 193.581 51.0014C195.423 51.0314 197.262 50.8474 199.061 50.453C197.788 49.5012 196.73 48.293 195.954 46.9065C195.178 45.5199 194.702 43.9859 194.556 42.4037C192.063 41.7103 191.791 39.5031 191.791 36.6613V25.8972H199.147L195.585 22.2443L197.257 20.6625C198.264 19.7164 199.37 18.8822 200.556 18.1743Z" fill="#F2F2F2"/>
<path d="M218.599 46.1473H218.454C216.261 49.6009 212.277 50.9923 208.23 50.9923C202.188 50.9923 196.74 47.5433 196.74 41.0214C196.74 29.8675 210.287 29.6681 218.586 29.6681C218.586 26.1465 215.667 23.8895 212.213 23.8895C208.959 23.8895 206.235 25.3489 204.11 27.7419L198.798 22.3032C202.465 18.8587 207.776 17.1319 213.016 17.1319C224.632 17.1319 227.754 23.0238 227.754 33.797V50.1946H218.599V46.1473ZM216.143 36.054C213.088 36.054 206.317 36.3214 206.317 40.7041C206.317 43.0926 208.841 44.2211 211.03 44.2211C214.946 44.2211 218.599 42.1635 218.599 38.1797V36.054H216.143Z" fill="#F2F2F2"/>
<path d="M60.8862 38.0437C60.0363 38.8934 58.8837 39.3707 57.6819 39.3707C56.4801 39.3707 55.3275 38.8934 54.4776 38.0437C53.6279 37.1938 53.1506 36.0412 53.1506 34.8394C53.1506 33.6376 53.6279 32.485 54.4776 31.6351L57.6819 28.4263L60.8862 31.6351C61.7359 32.485 62.2132 33.6376 62.2132 34.8394C62.2132 36.0412 61.7359 37.1938 60.8862 38.0437Z" fill="#F2F2F2"/>
<path d="M124.252 36.0767H115.876L115.785 36.4121C115.713 36.693 115.705 36.9869 115.763 37.2712C115.822 37.5555 115.944 37.8228 116.121 38.0528C116.297 38.2844 116.525 38.4717 116.786 38.6C117.047 38.7282 117.334 38.7938 117.625 38.7915H125.829L124.252 36.0767Z" fill="#F2F2F2"/>
<path d="M123.626 28.1634L119.443 35.415H116.297L120.377 28.3175C120.522 28.0656 120.724 27.8506 120.967 27.6892C121.209 27.5278 121.485 27.4242 121.774 27.3866C122.063 27.3489 122.356 27.3781 122.632 27.4719C122.907 27.5658 123.158 27.7217 123.363 27.9277L123.626 28.1634Z" fill="#F2F2F2"/>
<path d="M128.213 37.6177C128.103 37.8864 127.933 38.1266 127.716 38.3198C127.499 38.513 127.241 38.6542 126.962 38.7326L126.626 38.8232L122.434 31.5716L124.007 28.8523L128.086 35.9407C128.235 36.1914 128.325 36.4733 128.347 36.7643C128.369 37.0553 128.323 37.3474 128.213 37.6177Z" fill="#F2F2F2"/>
</svg>
